<svg width="22.966553" height="23.000000" viewBox="0 0 22.9666 23" fill="none" xmlns="http://www.w3.org/2000/svg" xmlns:xlink="http://www.w3.org/1999/xlink" id="icon-call">
	<desc>
			Created with Pixso.
	</desc>
	<path id="Vector" d="M18.1605 14.248C17.6897 13.7578 17.1217 13.4956 16.5198 13.4956C15.9227 13.4956 15.3499 13.7529 14.8596 14.2432L13.3257 15.772C13.1995 15.7041 13.0732 15.6411 12.9519 15.5781C12.7771 15.4907 12.6121 15.4082 12.4713 15.3208C11.0344 14.4082 9.72864 13.2188 8.4762 11.6802C7.86938 10.9131 7.46167 10.2676 7.16553 9.61182C7.5636 9.24805 7.9325 8.86914 8.29175 8.50537C8.42761 8.36914 8.5636 8.22852 8.69946 8.09277C9.71887 7.07324 9.71887 5.75293 8.69946 4.7334L7.37427 3.4082C7.22375 3.25781 7.06848 3.10254 6.92285 2.94727C6.63159 2.646 6.32568 2.33545 6.01013 2.04395C5.53931 1.57812 4.9762 1.33057 4.38403 1.33057C3.79175 1.33057 3.21899 1.57812 2.73352 2.04395C2.72864 2.04883 2.72864 2.04883 2.72388 2.05371L1.07336 3.71875C0.452026 4.34033 0.0976562 5.09766 0.0200195 5.97607C-0.0965576 7.39355 0.320923 8.71387 0.641357 9.57812C1.42773 11.6992 2.60242 13.6655 4.35486 15.772C6.48108 18.311 9.03931 20.3159 11.9615 21.7285C13.0781 22.2573 14.5684 22.8838 16.2334 22.9907C16.3353 22.9951 16.4421 23 16.5392 23C17.6605 23 18.6023 22.5972 19.3401 21.7964C19.345 21.7866 19.3547 21.7817 19.3595 21.772C19.6119 21.4663 19.9032 21.1895 20.2091 20.8936C20.4177 20.6943 20.6313 20.4858 20.8401 20.2671C21.3207 19.7671 21.5731 19.1846 21.5731 18.5874C21.5731 17.9858 21.3158 17.4082 20.8256 16.9229L18.1605 14.248ZM19.8983 19.3594C19.7091 19.5635 19.5149 19.748 19.3062 19.9517C18.9906 20.2524 18.6703 20.5684 18.3693 20.9224C17.879 21.4468 17.3013 21.6943 16.5441 21.6943C16.4712 21.6943 16.3936 21.6943 16.3208 21.6895C14.879 21.5972 13.5392 21.0342 12.5344 20.5537C9.78687 19.2236 7.37427 17.3354 5.36938 14.9419C3.71411 12.9468 2.6073 11.1021 1.87427 9.12158C1.42285 7.91309 1.25781 6.97119 1.33069 6.08301C1.37915 5.51514 1.59766 5.04395 2.00049 4.64111L3.65588 2.98584C3.89368 2.7627 4.14612 2.64111 4.39368 2.64111C4.69958 2.64111 4.94714 2.82568 5.10242 2.98096C5.1073 2.98584 5.11218 2.99072 5.11694 2.99561C5.41309 3.27246 5.6947 3.55859 5.99072 3.86475C6.14124 4.02002 6.29663 4.17529 6.4519 4.33545L7.77722 5.66064C8.29175 6.17529 8.29175 6.65088 7.77722 7.16553C7.63635 7.30615 7.50049 7.44678 7.35974 7.58301C6.9519 8.00049 6.5636 8.38867 6.14124 8.76758C6.13159 8.77686 6.12183 8.78174 6.11694 8.7915C5.69946 9.20898 5.77722 9.6167 5.8645 9.89355C5.86938 9.9082 5.87427 9.92285 5.87915 9.9375C6.22375 10.772 6.70923 11.5586 7.44702 12.4956L7.4519 12.5005C8.79175 14.1509 10.2043 15.437 11.7626 16.4229C11.9615 16.5488 12.1654 16.6509 12.3596 16.748C12.5344 16.8354 12.6995 16.918 12.8402 17.0054C12.8596 17.0146 12.879 17.0293 12.8984 17.0391C13.0635 17.1216 13.2189 17.1606 13.379 17.1606C13.782 17.1606 14.0344 16.9082 14.1169 16.8257L15.7771 15.1655C15.9421 15.0005 16.2042 14.8013 16.51 14.8013C16.811 14.8013 17.0586 14.9907 17.2091 15.1558C17.214 15.1606 17.214 15.1606 17.2188 15.1655L19.8936 17.8398C20.3936 18.3354 20.3936 18.8447 19.8983 19.3594Z" fill="#000000" fill-opacity="1.000000" fill-rule="nonzero"/>
	<path id="Vector" d="M12.4131 5.4707C13.6849 5.68457 14.8402 6.28662 15.7626 7.20898C16.6848 8.13086 17.282 9.28662 17.5004 10.5581C17.5538 10.8784 17.8304 11.1021 18.146 11.1021C18.1848 11.1021 18.2189 11.0972 18.2577 11.0923C18.6168 11.0342 18.8547 10.6943 18.7965 10.335C18.5343 8.7959 17.8062 7.39307 16.6946 6.28174C15.5829 5.16992 14.1801 4.44189 12.6412 4.17969C12.282 4.12158 11.947 4.35938 11.8839 4.71387C11.8208 5.06787 12.0538 5.4126 12.4131 5.4707Z" fill="#000000" fill-opacity="1.000000" fill-rule="nonzero"/>
	<path id="Vector" d="M22.9565 10.146C22.5245 7.61182 21.3303 5.30615 19.4955 3.47119C17.6605 1.63623 15.3547 0.441895 12.8208 0.00976562C12.4664 -0.0532227 12.1315 0.189453 12.0684 0.543945C12.0101 0.90332 12.2479 1.23828 12.6072 1.30127C14.8693 1.68457 16.9324 2.75732 18.5731 4.39355C20.2139 6.03418 21.2819 8.09717 21.6653 10.3594C21.7188 10.6797 21.9954 10.9028 22.3109 10.9028C22.3497 10.9028 22.3838 10.8984 22.4226 10.8936C22.777 10.8398 23.0197 10.5 22.9565 10.146Z" fill="#000000" fill-opacity="1.000000" fill-rule="nonzero"/>
</svg>
